<?xml version="1.0" encoding="UTF-8" standalone="no"?>
<!DOCTYPE svg PUBLIC "-//W3C//DTD SVG 1.1//EN" "http://www.w3.org/Graphics/SVG/1.1/DTD/svg11.dtd">
<svg xmlns="http://www.w3.org/2000/svg" version="1.1" viewBox="0.00 0.00 347.00 347.00">
<path fill="#000000" d="
  M 134.94 247.94
  L 133.49 248.55
  Q 131.34 249.47 132.88 247.71
  Q 135.16 245.11 138.51 243.75
  C 148.87 239.56 161.38 244.83 169.86 250.89
  Q 182.78 260.13 188.49 262.48
  C 192.55 264.14 196.46 266.18 200.60 267.48
  C 211.13 270.78 220.28 273.28 230.68 267.53
  C 239.65 262.58 243.26 254.02 241.07 243.77
  Q 240.22 239.77 238.61 235.22
  Q 238.29 234.30 237.63 235.01
  Q 237.33 235.34 237.64 235.88
  Q 237.86 236.27 237.88 236.71
  C 238.29 245.24 235.18 254.17 226.79 257.65
  C 211.85 263.83 197.66 256.00 185.97 247.01
  Q 178.47 241.25 170.88 235.60
  Q 167.25 232.89 163.30 230.72
  C 156.67 227.08 150.20 224.27 143.00 225.70
  C 135.18 227.25 129.01 230.98 122.74 235.51
  Q 120.15 237.38 121.87 234.70
  C 127.55 225.85 141.93 221.28 151.94 223.06
  C 155.17 223.64 158.35 225.08 161.44 226.31
  Q 161.92 226.50 162.17 226.05
  Q 168.95 214.14 175.98 207.98
  C 188.51 197.00 205.01 196.57 220.21 201.30
  Q 220.65 201.44 220.72 201.89
  Q 220.79 202.42 220.26 202.48
  C 219.81 202.54 219.53 202.51 219.12 202.74
  C 214.57 205.37 209.66 207.90 205.64 210.96
  Q 202.77 213.15 200.08 215.55
  A 0.38 0.37 -55.2 0 0 200.19 216.18
  Q 208.16 219.25 216.20 216.70
  C 218.72 215.90 220.98 215.88 221.81 218.63
  C 222.76 221.76 216.52 227.84 214.54 229.07
  Q 208.39 232.87 206.35 233.81
  C 200.13 236.69 192.46 237.86 185.14 236.48
  Q 184.49 236.36 184.15 236.92
  L 182.43 239.68
  A 0.99 0.98 35.1 0 0 182.66 240.98
  Q 190.26 246.91 197.20 251.31
  C 200.03 253.11 204.58 255.15 207.83 255.97
  Q 208.33 256.09 208.75 255.79
  Q 216.11 250.46 221.07 248.85
  Q 227.32 246.83 233.47 245.41
  A 1.33 1.33 0.0 0 0 234.48 244.31
  Q 235.93 233.94 233.14 223.87
  Q 232.97 223.27 233.59 223.35
  Q 233.87 223.39 234.34 223.91
  C 239.10 229.08 241.94 235.09 243.77 241.74
  A 0.41 0.41 0.0 0 0 244.37 241.99
  Q 253.01 237.16 250.31 228.01
  Q 249.90 226.64 250.19 226.01
  Q 250.71 224.88 252.51 225.18
  Q 257.37 225.97 261.62 224.97
  A 1.24 1.24 0.0 0 0 262.39 223.11
  C 258.98 217.54 254.11 214.64 248.71 211.10
  A 1.91 1.91 0.0 0 1 248.28 208.29
  C 250.63 205.40 263.77 206.77 267.51 206.87
  C 270.40 206.96 275.06 207.82 277.61 206.51
  A 0.81 0.80 -33.9 0 0 277.86 205.27
  C 269.51 195.43 258.00 190.95 245.16 189.70
  C 244.47 189.63 243.68 189.26 243.17 188.90
  A 0.82 0.81 49.2 0 1 243.27 187.51
  Q 246.77 185.74 250.36 184.67
  C 254.55 183.41 260.25 183.08 265.17 182.28
  Q 265.81 182.18 265.26 181.84
  Q 263.36 180.66 261.26 179.95
  Q 245.09 174.51 228.01 175.56
  Q 227.38 175.60 227.04 175.29
  Q 226.57 174.88 227.18 174.75
  C 240.71 171.97 254.33 172.96 267.03 178.64
  Q 269.78 179.86 271.42 181.64
  A 1.51 1.50 -30.2 0 1 270.77 184.09
  Q 263.89 186.30 257.24 186.84
  Q 255.95 186.94 254.95 187.69
  Q 254.57 187.97 255.03 188.09
  C 256.62 188.49 258.11 188.41 259.59 188.97
  C 263.92 190.60 269.29 192.70 272.72 195.84
  C 273.76 196.79 275.08 197.20 275.98 198.13
  Q 278.57 200.78 281.44 203.12
  Q 281.81 203.43 281.45 203.74
  Q 280.63 204.47 281.38 205.45
  Q 281.65 205.80 281.56 206.23
  C 280.64 210.44 276.82 211.01 273.00 210.80
  Q 266.12 210.41 259.25 209.95
  Q 256.78 209.79 254.53 210.16
  A 0.31 0.30 -34.2 0 0 254.42 210.72
  C 258.41 213.14 267.15 219.76 265.90 224.94
  C 264.85 229.30 259.23 229.17 255.04 229.09
  Q 254.43 229.07 254.47 229.68
  Q 255.22 241.36 244.55 245.74
  Q 244.10 245.92 244.17 246.41
  C 246.26 260.50 235.08 272.13 221.75 273.41
  Q 213.70 274.19 210.75 273.24
  Q 207.20 272.11 203.55 271.49
  C 202.03 271.23 200.75 270.48 199.19 270.04
  Q 198.70 269.90 198.38 270.31
  C 191.21 279.71 187.72 288.00 184.14 299.57
  C 183.93 300.25 184.22 301.08 183.98 301.95
  Q 183.31 304.33 183.44 306.80
  C 183.48 307.57 183.06 308.13 183.12 308.84
  C 183.40 312.45 183.64 316.42 185.65 319.38
  Q 188.22 323.14 192.61 324.93
  A 2.13 2.12 35.5 0 1 193.21 328.50
  C 187.60 333.40 174.10 331.00 171.55 323.63
  A 0.62 0.62 0.0 0 0 170.40 323.57
  Q 168.13 328.29 166.29 333.05
  C 164.63 337.30 161.52 341.39 156.96 342.66
  C 151.75 344.12 145.87 340.87 143.04 336.62
  Q 142.77 336.21 142.45 336.59
  Q 140.00 339.46 137.68 341.13
  C 132.39 344.93 125.75 340.74 123.87 335.38
  Q 123.59 334.56 122.85 335.02
  C 119.98 336.82 117.98 337.54 115.91 334.11
  Q 111.21 326.32 113.47 318.40
  Q 114.29 315.50 111.90 317.34
  Q 108.33 320.09 106.62 324.25
  A 1.46 1.46 0.0 0 1 104.37 324.83
  C 100.22 321.51 101.15 313.42 102.98 309.25
  Q 105.78 302.89 111.42 298.95
  Q 111.80 298.68 112.25 298.54
  L 114.45 297.81
  A 0.59 0.59 0.0 0 0 114.70 296.86
  Q 112.58 294.45 114.76 292.06
  A 0.73 0.72 -41.5 0 0 114.82 291.16
  C 112.81 288.29 109.18 280.95 113.91 279.04
  Q 114.45 278.82 114.06 278.38
  Q 113.14 277.34 111.88 276.81
  Q 111.32 276.58 111.25 277.18
  C 110.40 284.25 104.95 285.30 99.01 283.63
  C 95.55 282.66 90.46 280.48 88.41 277.42
  Q 87.92 276.69 87.46 277.44
  Q 84.82 281.73 81.04 285.04
  A 2.10 2.00 -71.7 0 1 80.23 285.47
  C 77.68 286.21 76.04 287.47 73.05 286.99
  C 67.63 286.13 63.19 282.58 60.17 278.60
  C 58.67 276.62 56.45 274.73 55.79 272.25
  A 0.77 0.77 0.0 0 0 54.41 272.02
  C 51.05 277.01 43.02 282.63 40.93 272.23
  Q 39.46 264.96 39.55 257.56
  C 39.56 256.32 40.11 255.15 40.26 253.79
  Q 40.33 253.10 39.75 253.48
  Q 37.26 255.12 34.66 252.73
  A 1.33 1.32 44.0 0 1 34.62 250.82
  Q 35.06 250.39 35.03 249.85
  Q 35.00 249.24 34.40 249.11
  C 23.53 246.70 11.22 239.51 8.54 227.74
  Q 6.80 220.11 10.18 213.51
  Q 15.17 203.78 26.02 197.84
  C 28.71 196.37 31.48 194.42 34.56 192.83
  Q 39.28 190.39 44.96 185.44
  Q 53.35 178.14 50.48 168.39
  C 49.07 163.58 44.82 158.27 40.91 155.09
  Q 38.91 153.46 37.97 152.22
  Q 37.49 151.60 38.22 151.90
  Q 43.28 154.04 48.30 156.14
  C 54.11 158.57 59.87 163.67 62.78 169.14
  Q 65.05 173.43 64.76 177.69
  C 64.19 185.75 57.97 192.57 51.41 196.66
  Q 44.32 201.09 37.32 205.68
  Q 33.94 207.90 32.50 210.19
  C 30.49 213.41 29.16 217.66 30.34 221.42
  C 32.45 228.10 41.65 231.30 47.63 233.20
  A 0.69 0.69 0.0 0 0 48.50 232.32
  C 47.32 228.84 49.54 224.43 52.16 222.66
  Q 53.92 221.48 56.76 221.55
  C 58.37 221.59 59.47 222.49 60.97 223.10
  Q 61.47 223.30 61.75 222.83
  C 66.17 215.47 75.51 210.76 84.06 211.53
  A 1.36 1.35 -61.2 0 0 84.98 211.26
  C 89.88 207.53 95.53 206.03 101.48 204.95
  Q 102.04 204.85 102.20 204.31
  Q 103.68 199.45 108.17 197.22
  Q 108.64 196.99 108.39 196.52
  C 105.35 190.82 105.82 182.85 109.96 177.70
  Q 110.27 177.31 110.04 176.87
  C 106.76 170.73 108.48 164.20 113.40 159.52
  Q 113.79 159.14 113.28 158.95
  C 107.74 156.86 109.80 150.08 113.30 147.34
  Q 120.29 141.87 129.08 143.14
  Q 129.60 143.22 129.94 142.82
  Q 134.14 137.92 139.56 134.39
  Q 140.00 134.11 139.88 133.60
  C 134.44 111.53 135.55 90.78 138.63 68.17
  C 139.36 62.74 143.33 49.15 150.58 49.15
  Q 153.45 49.15 155.85 51.41
  Q 156.94 52.43 156.98 53.03
  Q 157.03 53.78 157.75 54.01
  L 158.23 54.16
  Q 158.95 54.39 158.87 53.64
  Q 158.76 52.65 159.14 51.47
  Q 166.01 29.90 181.05 13.03
  C 183.68 10.08 191.23 2.50 195.55 3.49
  C 203.15 5.22 195.32 24.44 193.54 28.49
  C 193.30 29.03 193.54 29.77 193.29 30.47
  Q 191.87 34.43 190.50 38.41
  C 188.35 44.66 186.93 51.22 185.30 57.67
  C 184.42 61.15 184.12 64.84 183.46 68.48
  Q 180.12 86.95 179.43 105.72
  C 179.40 106.69 178.85 107.64 178.80 108.70
  Q 178.76 109.38 179.27 108.93
  C 187.72 101.50 195.30 92.20 197.96 81.03
  C 198.31 79.56 199.11 78.51 200.06 77.46
  A 1.67 1.67 0.0 0 1 202.71 77.69
  Q 204.25 80.12 203.74 82.97
  Q 203.61 83.73 204.23 83.27
  Q 205.00 82.72 205.38 81.85
  Q 211.20 68.32 218.04 59.01
  Q 223.17 52.02 227.01 49.77
  C 230.62 47.66 233.72 44.21 238.54 44.45
  Q 243.21 44.68 243.25 49.61
  A 0.60 0.60 0.0 0 0 244.31 49.98
  Q 250.11 42.80 257.54 37.03
  Q 269.69 27.59 281.25 21.95
  C 287.36 18.96 293.20 15.67 299.46 12.90
  C 300.33 12.51 301.29 12.55 302.14 12.18
  Q 309.90 8.78 313.47 8.42
  C 320.66 7.68 320.44 13.72 317.76 18.15
  C 315.10 22.54 311.25 25.94 307.59 29.91
  C 296.02 42.44 284.31 54.83 272.99 67.60
  C 270.76 70.11 268.49 72.76 266.46 75.59
  C 265.35 77.13 263.93 78.33 262.88 79.83
  Q 260.89 82.68 258.27 85.87
  A 0.47 0.47 0.0 0 0 258.67 86.64
  Q 263.66 86.32 269.00 86.00
  Q 273.95 85.70 283.99 86.55
  Q 287.26 86.82 289.20 87.98
  Q 289.69 88.27 289.81 88.82
  L 290.09 90.09
  Q 290.22 90.67 290.81 90.64
  Q 303.34 89.84 315.75 91.39
  Q 320.97 92.05 325.76 94.18
  Q 328.67 95.48 328.64 98.57
  Q 328.63 99.22 329.26 99.05
  L 329.86 98.88
  Q 330.31 98.76 330.13 99.19
  C 328.69 102.55 325.73 101.97 323.36 102.83
  C 318.84 104.47 313.55 105.60 309.63 106.92
  C 300.83 109.88 288.45 113.25 283.05 121.56
  A 1.68 1.68 0.0 0 0 283.32 123.71
  C 286.21 126.40 289.93 127.09 293.53 128.44
  Q 294.93 128.96 295.54 131.74
  A 1.08 1.07 -38.0 0 1 295.45 132.45
  Q 294.05 135.12 291.41 136.67
  C 286.12 139.78 280.15 142.02 276.12 146.83
  A 0.72 0.72 0.0 0 0 276.32 147.92
  C 279.21 149.54 283.84 151.09 285.41 153.65
  C 289.67 160.60 273.69 167.93 268.98 169.96
  Q 266.79 170.90 268.43 169.17
  C 273.04 164.33 279.62 162.32 282.55 156.31
  A 0.84 0.84 0.0 0 0 282.23 155.21
  C 278.46 152.92 270.36 150.85 273.15 144.98
  C 274.03 143.12 279.21 139.03 281.77 137.84
  Q 286.94 135.44 291.37 132.37
  A 0.69 0.69 0.0 0 0 291.15 131.13
  C 287.79 130.25 282.98 128.92 280.87 126.41
  C 274.96 119.41 287.81 111.73 293.54 109.20
  C 300.33 106.20 307.33 104.01 314.39 101.54
  C 317.20 100.55 320.88 100.43 323.94 98.97
  Q 324.74 98.59 324.70 97.86
  A 0.83 0.82 -85.9 0 0 324.05 97.10
  C 322.45 96.74 321.14 96.00 319.57 95.86
  C 317.70 95.70 315.62 95.08 314.08 94.85
  C 304.35 93.43 293.29 93.12 283.47 95.15
  C 281.11 95.64 279.44 95.57 277.71 94.04
  A 0.84 0.84 0.0 0 1 277.91 92.65
  Q 280.65 91.37 283.45 90.96
  Q 284.18 90.86 284.54 90.39
  Q 284.94 89.88 284.30 89.83
  Q 270.11 88.74 255.99 90.50
  A 2.36 2.33 -76.6 0 0 254.31 91.55
  Q 239.40 114.40 229.94 139.75
  C 226.95 147.76 212.71 151.68 205.50 151.45
  C 195.03 151.12 185.02 142.24 188.19 130.36
  C 190.69 120.97 192.97 111.45 196.57 102.43
  Q 198.78 96.89 201.07 91.37
  Q 201.26 90.92 201.21 90.42
  L 200.98 87.97
  Q 200.75 85.63 199.78 87.78
  Q 197.31 93.27 193.00 99.04
  Q 184.99 109.74 177.75 114.96
  Q 172.59 118.67 167.43 122.41
  Q 162.77 125.80 148.79 132.89
  C 146.45 134.07 144.30 135.67 141.99 137.05
  C 134.37 141.58 128.97 148.44 127.01 157.01
  Q 126.69 158.39 125.86 159.06
  Q 125.33 159.48 125.20 158.81
  Q 123.90 151.97 127.72 146.23
  Q 128.31 145.34 127.28 145.63
  C 121.19 147.30 115.45 146.88 113.14 154.24
  Q 112.98 154.75 113.42 155.06
  C 115.53 156.55 118.02 155.19 119.78 156.85
  A 1.68 1.68 0.0 0 1 119.26 159.62
  C 115.27 161.26 111.87 165.96 111.80 170.45
  C 111.73 174.68 114.97 178.98 118.55 180.91
  C 120.42 181.92 121.45 180.68 122.94 179.28
  C 125.02 177.33 124.67 173.88 124.56 170.18
  Q 124.54 169.55 125.02 169.96
  L 125.76 170.59
  A 0.45 0.43 -70.8 0 1 125.90 170.89
  C 126.02 173.55 127.42 175.17 126.67 178.39
  C 126.06 180.98 123.88 182.38 123.53 185.20
  C 122.81 190.87 119.95 195.49 114.68 197.86
  C 111.70 199.20 108.30 200.63 106.26 203.12
  Q 104.89 204.78 107.03 204.52
  Q 109.27 204.25 111.22 205.26
  Q 114.75 207.10 110.82 206.97
  C 110.16 206.95 108.16 207.76 107.03 207.83
  Q 98.16 208.36 89.28 212.43
  A 0.55 0.54 -56.6 0 0 89.49 213.47
  L 90.00 213.48
  A 1.28 1.24 -22.2 0 1 90.84 213.82
  C 92.11 215.02 93.76 215.84 94.79 217.01
  Q 97.19 219.72 97.97 223.33
  Q 98.09 223.88 98.59 223.61
  Q 102.86 221.28 105.01 221.27
  C 111.91 221.24 118.12 226.35 115.83 233.55
  Q 114.58 237.43 111.00 239.95
  A 0.19 0.19 0.0 0 1 110.72 239.70
  C 113.26 235.15 116.15 229.70 110.40 226.05
  C 106.49 223.57 100.74 225.22 98.15 228.71
  A 2.41 2.40 3.6 0 1 97.35 229.41
  Q 93.99 231.23 94.41 228.24
  C 95.60 219.89 89.88 215.90 82.45 215.19
  C 80.20 214.98 78.42 215.57 76.27 216.05
  C 70.85 217.25 65.06 222.30 63.49 227.73
  A 1.27 1.27 0.0 0 1 61.39 228.29
  C 60.25 227.19 59.43 225.89 57.79 225.41
  C 49.88 223.10 49.76 233.32 51.78 238.16
  Q 51.91 238.47 51.61 238.61
  L 51.38 238.73
  A 0.10 0.09 66.3 0 1 51.26 238.68
  Q 50.38 236.89 49.23 235.23
  Q 48.93 234.80 48.41 234.78
  C 40.65 234.46 29.29 229.94 27.49 221.31
  C 25.80 213.20 30.44 206.00 37.56 202.04
  Q 42.93 199.06 52.86 192.13
  C 57.62 188.80 62.41 181.46 62.20 176.14
  C 62.10 173.55 59.61 168.87 57.68 166.61
  Q 53.91 162.21 49.13 159.68
  Q 47.55 158.84 48.73 160.18
  C 53.84 165.94 55.97 173.67 51.98 180.83
  Q 51.48 181.74 51.06 182.71
  C 49.45 186.47 43.46 190.66 39.99 192.72
  Q 33.19 196.77 26.45 200.90
  C 19.94 204.89 12.82 211.39 11.15 219.30
  C 9.99 224.82 11.72 231.57 15.91 235.92
  C 21.90 242.14 28.19 244.36 35.78 247.02
  A 0.92 0.91 19.1 0 0 36.95 246.46
  C 37.82 243.96 42.40 240.84 44.61 239.50
  Q 45.06 239.23 45.23 239.73
  Q 45.28 239.87 45.24 240.04
  Q 45.21 240.19 45.05 240.34
  C 42.25 243.08 40.63 246.59 38.34 249.66
  Q 38.19 249.85 38.39 250.01
  L 38.67 250.25
  A 0.61 0.61 0.0 0 0 39.54 250.14
  Q 40.97 248.27 43.34 248.09
  A 1.58 1.58 0.0 0 1 44.92 250.29
  C 43.72 253.11 43.06 255.77 43.08 258.94
  C 43.10 264.04 43.35 269.07 45.00 273.96
  A 1.04 1.04 0.0 0 0 46.55 274.50
  Q 49.39 272.68 51.21 270.47
  C 52.15 269.32 52.22 267.70 53.17 266.52
  Q 54.81 264.50 56.23 266.68
  Q 58.48 270.14 60.83 273.67
  C 64.38 279.00 72.02 287.02 79.29 281.66
  C 82.69 279.15 83.99 275.59 86.32 272.36
  A 1.97 1.97 0.0 0 1 89.82 273.03
  C 91.17 278.35 101.13 281.13 105.40 280.63
  C 107.77 280.35 108.00 275.54 107.95 273.75
  Q 107.86 270.70 110.41 270.85
  A 2.45 2.44 73.8 0 1 112.25 271.87
  C 116.19 277.33 125.45 280.04 131.93 279.46
  A 2.11 2.11 0.0 0 0 133.77 276.77
  Q 132.56 272.61 130.12 269.12
  A 2.04 2.03 51.8 0 1 130.44 266.43
  L 130.77 266.15
  A 1.64 1.64 0.0 0 1 133.05 266.27
  L 137.16 270.70
  A 1.18 1.18 0.0 0 0 139.14 270.28
  C 141.28 263.96 138.20 255.29 135.60 249.46
  Q 135.34 248.86 135.35 248.22
  Q 135.36 247.76 134.94 247.94
  Z
  M 159.12 64.95
  L 158.77 64.81
  Q 157.05 64.10 156.93 62.24
  Q 156.57 56.21 151.65 52.73
  Q 151.23 52.44 150.72 52.51
  C 147.44 53.00 145.71 57.71 144.49 60.35
  Q 143.25 63.01 142.67 66.38
  Q 140.22 80.84 139.58 95.50
  C 139.01 108.65 140.38 119.65 142.73 131.57
  A 0.57 0.57 0.0 0 0 143.61 131.94
  Q 146.29 130.12 149.02 128.77
  Q 159.37 123.67 168.84 117.08
  Q 169.86 116.37 170.81 115.57
  C 172.15 114.44 173.77 113.98 175.05 112.53
  Q 175.38 112.15 175.41 111.64
  Q 176.75 89.17 177.68 83.25
  Q 178.76 76.39 179.75 69.53
  Q 182.42 51.11 188.51 33.53
  C 188.66 33.11 188.54 32.85 188.72 32.38
  Q 192.53 22.42 195.26 12.11
  C 195.57 10.94 195.48 9.74 195.42 8.57
  A 1.35 1.35 0.0 0 0 193.56 7.38
  Q 190.91 8.46 188.44 10.71
  C 181.83 16.76 176.99 22.83 171.79 31.52
  C 168.15 37.60 165.76 43.95 163.11 50.56
  Q 161.18 55.37 160.54 64.07
  A 1.04 1.03 -76.6 0 1 159.12 64.95
  Z
  M 237.51 63.32
  Q 236.76 62.57 237.20 60.97
  C 237.70 59.13 238.71 57.27 239.08 55.62
  Q 239.76 52.57 239.49 49.69
  Q 239.28 47.30 237.06 48.19
  C 232.88 49.87 229.30 52.40 225.48 56.07
  C 222.51 58.92 220.27 62.47 217.91 65.91
  Q 213.60 72.19 207.04 87.02
  Q 202.53 97.22 198.52 107.62
  Q 198.11 108.69 197.64 110.40
  C 196.31 115.27 194.50 119.93 193.61 124.93
  Q 193.30 126.68 192.10 129.77
  Q 189.59 136.25 193.95 142.24
  C 194.97 143.64 198.37 146.29 200.69 146.56
  C 202.79 146.80 204.49 147.57 206.52 147.48
  C 213.30 147.17 218.72 145.73 224.14 141.65
  C 225.27 140.80 226.80 137.56 227.29 136.29
  Q 233.05 121.22 240.83 107.06
  Q 242.71 103.66 244.64 100.32
  Q 251.11 89.17 258.91 78.91
  Q 269.76 64.62 287.59 45.99
  C 292.06 41.32 296.77 36.27 300.84 31.69
  C 306.04 25.82 312.57 20.52 316.07 13.36
  A 0.70 0.70 0.0 0 0 315.43 12.35
  C 309.40 12.45 302.31 15.99 296.76 18.27
  Q 288.91 21.49 271.11 32.17
  Q 269.53 33.12 264.19 36.68
  C 258.61 40.41 250.93 47.05 246.53 53.38
  Q 244.73 55.97 243.03 58.61
  Q 241.46 61.06 239.39 63.29
  A 1.31 1.30 44.0 0 1 237.51 63.32
  Z
  M 111.11 194.40
  A 1.20 1.19 67.0 0 0 112.73 195.06
  Q 119.05 192.18 119.93 185.19
  Q 120.00 184.64 119.46 184.56
  C 115.75 184.00 115.04 183.01 112.50 180.54
  Q 112.12 180.18 111.90 180.65
  C 110.69 183.25 110.68 184.96 110.10 187.36
  C 109.46 190.03 110.09 191.74 111.11 194.40
  Z
  M 210.78 202.61
  C 202.18 201.60 193.35 201.55 185.49 205.67
  Q 185.01 205.92 185.37 206.32
  Q 189.85 211.34 195.75 214.58
  Q 196.21 214.83 196.56 214.45
  C 197.53 213.41 198.27 212.35 199.39 211.46
  Q 204.06 207.71 209.12 204.51
  Q 210.25 203.80 210.96 203.31
  Q 211.79 202.73 210.78 202.61
  Z
  M 213.69 220.42
  C 201.98 221.79 190.21 217.11 183.09 207.60
  Q 182.80 207.21 182.40 207.50
  C 176.12 211.96 172.52 216.78 167.57 223.66
  Q 167.29 224.05 167.62 224.39
  C 182.48 239.85 206.81 236.28 219.22 220.04
  A 0.57 0.56 15.0 0 0 218.70 219.14
  C 216.91 219.36 215.40 220.22 213.69 220.42
  Z
  M 168.92 230.85
  Q 173.89 234.30 179.04 238.19
  A 0.44 0.43 27.0 0 0 179.72 237.97
  L 180.34 235.98
  Q 180.51 235.44 179.97 235.26
  Q 172.32 232.77 166.46 227.25
  A 0.85 0.85 0.0 0 0 165.07 227.62
  Q 164.85 228.37 165.75 229.04
  C 166.71 229.74 168.01 230.21 168.92 230.85
  Z
  M 138.51 251.16
  Q 138.70 251.40 138.95 251.23
  L 146.60 246.18
  A 0.28 0.24 -7.2 0 0 146.69 246.08
  Q 147.40 244.76 145.73 244.92
  Q 140.67 245.41 136.03 247.37
  Q 135.71 247.51 135.92 247.78
  L 138.51 251.16
  Z
  M 166.66 285.33
  Q 167.63 276.37 169.83 267.63
  C 170.46 265.11 171.05 260.53 172.53 257.10
  Q 172.73 256.65 172.37 256.31
  C 170.19 254.23 167.13 252.67 164.99 251.16
  Q 159.43 247.23 152.65 245.95
  Q 152.16 245.86 151.78 246.19
  C 147.46 249.84 145.13 252.00 140.75 253.72
  Q 140.22 253.92 140.50 254.42
  Q 145.25 262.84 142.58 271.27
  Q 141.42 274.91 137.27 274.42
  Q 136.72 274.36 136.90 274.89
  C 138.93 280.64 134.08 283.59 129.02 283.14
  Q 125.80 282.86 128.07 285.16
  Q 128.67 285.77 130.52 286.83
  Q 131.01 287.11 131.54 286.91
  L 132.36 286.59
  A 0.98 0.97 -37.0 0 1 133.32 286.72
  L 137.24 289.74
  A 0.91 0.90 35.8 0 0 138.55 289.53
  Q 140.23 287.04 143.23 287.69
  A 0.38 0.38 0.0 0 0 143.67 287.18
  C 142.40 284.03 141.93 279.97 146.07 278.66
  A 1.50 1.48 -43.5 0 1 147.02 278.68
  C 152.42 280.57 157.44 283.38 162.53 285.95
  C 163.51 286.44 164.61 286.40 165.50 287.44
  A 0.79 0.79 0.0 0 0 166.06 287.72
  Q 166.88 287.76 166.94 287.00
  Q 166.96 286.66 166.80 286.27
  Q 166.60 285.82 166.66 285.33
  Z
  M 225.30 251.14
  C 220.51 253.01 217.48 253.99 214.03 256.48
  Q 213.04 257.19 214.26 257.24
  C 220.40 257.47 228.27 255.43 232.00 249.84
  Q 232.38 249.25 231.69 249.37
  Q 228.37 249.95 225.30 251.14
  Z
  M 124.19 326.60
  Q 126.16 326.86 126.19 329.73
  Q 126.27 335.59 130.83 338.35
  C 135.57 341.21 139.21 334.90 141.43 331.88
  Q 143.03 329.71 144.75 331.34
  Q 145.11 331.69 145.23 332.18
  Q 146.36 337.01 150.94 338.64
  C 152.53 339.21 154.17 339.84 155.51 339.49
  C 161.29 337.97 163.92 330.27 165.71 325.18
  C 167.03 321.45 171.39 315.88 174.58 322.23
  C 177.04 327.12 182.93 327.54 187.37 327.47
  Q 189.55 327.43 187.70 326.29
  C 180.90 322.10 178.57 312.82 179.61 305.37
  Q 182.37 285.65 195.02 269.00
  Q 195.35 268.56 194.88 268.30
  C 192.73 267.09 190.07 266.39 188.25 265.48
  Q 181.89 262.31 176.09 258.41
  A 0.55 0.55 0.0 0 0 175.23 258.81
  C 174.30 268.57 170.13 277.11 170.41 287.19
  C 170.59 293.67 168.28 298.24 161.71 300.04
  Q 141.55 305.54 121.93 298.23
  C 120.05 297.53 118.75 296.26 117.24 294.95
  Q 116.47 294.28 116.72 295.28
  Q 117.11 296.83 118.61 298.16
  Q 119.68 299.11 118.81 300.25
  A 0.86 0.85 21.5 0 1 118.04 300.58
  C 109.63 299.68 104.52 310.64 105.15 317.75
  Q 105.27 319.11 106.12 318.05
  C 107.68 316.12 116.21 309.44 118.63 312.72
  A 1.29 1.27 42.1 0 1 118.71 314.12
  C 115.50 319.63 115.19 327.35 119.34 332.54
  A 0.47 0.46 46.9 0 0 120.04 332.57
  Q 121.83 330.66 122.10 328.23
  A 1.86 1.86 0.0 0 1 124.19 326.60
  Z
  M 125.84 295.70
  C 123.57 293.97 120.07 290.90 122.01 287.60
  A 1.42 1.33 -86.6 0 1 122.58 287.06
  L 124.03 286.34
  Q 124.51 286.10 124.04 285.85
  L 115.70 281.36
  A 0.96 0.96 0.0 0 0 114.31 282.44
  C 115.63 287.79 116.84 290.38 121.25 295.13
  Q 121.58 295.48 122.05 295.58
  C 130.58 297.41 138.64 299.07 147.45 298.93
  C 148.36 298.91 149.60 298.44 150.70 298.78
  Q 151.57 299.05 151.48 298.21
  A 1.08 1.06 11.5 0 0 150.93 297.39
  Q 147.39 295.42 145.67 291.78
  Q 144.83 290.01 142.77 290.27
  C 140.80 290.50 139.90 292.29 140.04 294.09
  A 0.42 0.42 0.0 0 1 139.35 294.45
  Q 136.91 292.43 134.41 290.47
  C 133.26 289.57 132.07 289.40 131.32 290.83
  Q 131.11 291.24 131.43 291.56
  Q 132.04 292.16 132.25 292.99
  A 0.44 0.44 0.0 0 1 131.58 293.46
  C 128.87 291.61 128.29 289.94 124.91 289.29
  A 0.74 0.73 -3.1 0 0 124.06 290.23
  C 124.40 291.33 126.77 295.16 126.59 295.53
  Q 126.33 296.07 125.84 295.70
  Z
  M 151.52 295.91
  C 152.00 296.50 152.17 297.37 152.77 297.84
  C 153.96 298.78 155.88 297.63 157.24 297.52
  Q 161.05 297.20 164.21 295.12
  C 165.70 294.14 166.00 292.66 166.24 291.02
  Q 166.31 290.48 165.82 290.25
  C 164.99 289.87 163.98 289.78 163.25 289.43
  Q 155.23 285.54 147.60 281.62
  A 1.39 1.39 0.0 0 0 145.61 283.14
  Q 147.14 290.55 151.52 295.91
  Z"
/>
<path fill="#000000" d="
  M 189.46 159.62
  Q 190.81 160.45 191.64 161.85
  Q 191.87 162.24 191.87 162.70
  C 191.94 169.52 184.91 170.47 179.78 170.83
  A 1.67 1.67 0.0 0 0 178.52 173.43
  C 179.83 175.37 179.80 179.06 180.38 181.38
  C 181.23 184.78 179.69 191.55 177.89 194.90
  C 174.60 201.02 167.99 206.14 160.70 205.38
  C 152.48 204.53 145.65 199.40 143.04 191.48
  Q 142.80 190.74 142.92 188.99
  Q 142.95 188.48 142.44 188.47
  L 140.80 188.43
  A 1.00 0.79 51.5 0 1 140.54 188.37
  C 133.96 185.53 130.77 179.73 131.83 172.57
  C 132.11 170.70 131.91 168.56 133.41 167.06
  Q 133.87 166.60 133.80 167.25
  Q 133.78 167.47 133.68 167.69
  A 1.19 1.17 53.1 0 0 133.58 168.45
  C 134.00 170.48 133.61 172.65 133.80 174.33
  C 135.47 188.56 149.47 186.35 159.01 182.29
  Q 164.55 179.93 172.36 173.56
  C 174.13 172.12 175.22 170.59 176.04 168.60
  A 1.88 1.87 -77.1 0 1 177.87 167.44
  Q 182.16 167.65 186.26 166.03
  Q 188.15 165.29 188.18 164.11
  Q 188.22 162.51 186.72 161.97
  Q 182.99 160.64 178.93 160.53
  Q 178.43 160.51 178.09 160.14
  L 177.72 159.74
  A 1.31 1.31 0.0 0 1 178.52 157.55
  C 183.35 156.95 190.24 156.54 193.63 152.38
  Q 193.92 152.03 193.66 151.65
  C 191.87 149.07 188.78 148.26 185.40 147.02
  Q 184.62 146.73 185.44 146.59
  C 189.45 145.93 194.72 147.57 196.79 151.46
  Q 197.02 151.89 196.87 152.35
  C 195.68 155.87 192.89 157.73 189.53 158.92
  Q 188.77 159.19 189.46 159.62
  Z
  M 174.10 194.33
  C 177.70 188.19 177.15 182.73 175.93 175.88
  Q 175.82 175.28 175.35 175.68
  Q 166.26 183.59 154.99 187.64
  C 151.93 188.74 148.53 188.76 145.30 188.85
  A 0.44 0.44 0.0 0 0 144.93 189.51
  C 148.22 195.21 151.46 199.42 157.96 201.30
  C 164.68 203.24 170.66 200.17 174.10 194.33
  Z"
/>
<ellipse fill="#000000" cx="0.00" cy="0.00" transform="translate(113.18,190.07) rotate(93.3)" rx="3.06" ry="2.70"/>
<ellipse fill="#000000" cx="0.00" cy="0.00" transform="translate(154.80,194.05) rotate(86.8)" rx="3.67" ry="3.21"/>
<path fill="#000000" d="
  M 114.84 208.08
  A 7.96 1.02 -13.8 0 1 118.47 206.68
  Q 121.62 205.69 127.32 206.87
  Q 130.57 207.54 127.28 207.94
  Q 124.37 208.28 120.37 209.13
  C 118.22 209.59 116.24 210.63 114.14 211.40
  C 111.86 212.25 110.81 213.72 108.81 215.03
  Q 107.88 215.62 108.40 214.65
  Q 110.64 210.40 114.84 208.08
  Z"
/>
<path fill="#000000" d="
  M 62.88 243.81
  C 63.18 244.73 63.76 245.58 64.00 246.32
  Q 64.49 247.83 63.11 247.07
  C 60.42 245.59 51.12 237.76 55.50 234.44
  Q 55.89 234.14 56.34 234.34
  C 59.70 235.79 61.84 240.54 62.88 243.81
  Z"
/>
<path fill="#000000" d="
  M 91.59 248.06
  Q 94.05 243.79 96.57 239.53
  C 97.68 237.65 101.58 235.46 103.65 237.27
  C 105.68 239.06 104.14 242.70 102.35 244.07
  C 99.69 246.13 94.61 248.01 91.20 249.06
  Q 90.38 249.31 90.81 248.72
  Q 90.92 248.59 91.12 248.49
  Q 91.42 248.35 91.59 248.06
  Z"
/>
<path fill="#000000" d="
  M 71.78 254.89
  Q 76.78 256.07 81.75 254.53
  Q 82.04 254.44 82.15 254.73
  L 82.24 254.97
  Q 82.32 255.21 82.09 255.30
  Q 80.61 255.92 79.19 256.48
  Q 73.12 258.86 68.83 254.34
  Q 68.26 253.75 69.08 253.81
  Q 70.10 253.88 70.87 254.46
  Q 71.28 254.77 71.78 254.89
  Z"
/>
</svg>
